<mxfile host="app.diagrams.net" agent="Mozilla/5.0 (Windows NT 10.0; Win64; x64) AppleWebKit/537.36 (KHTML, like Gecko) Chrome/136.0.0.0 Safari/537.36 Edg/136.0.0.0" version="26.2.14">
  <diagram name="PÃ¡gina-1" id="ytAUvHzNuOv9NlSxQtic">
    <mxGraphModel dx="2722" dy="2329" grid="1" gridSize="10" guides="1" tooltips="1" connect="1" arrows="1" fold="1" page="1" pageScale="1" pageWidth="827" pageHeight="1169" math="0" shadow="0">
      <root>
        <mxCell id="0" />
        <mxCell id="1" parent="0" />
        <mxCell id="OcddiBXDzXsKh_pcsMyF-2" value="AXXION SYSTEM" style="swimlane;whiteSpace=wrap;html=1;movable=1;resizable=1;rotatable=1;deletable=1;editable=1;locked=0;connectable=1;startSize=20;" parent="1" vertex="1">
          <mxGeometry x="-260" y="50" width="1270" height="860" as="geometry" />
        </mxCell>
        <mxCell id="e5JbzyADHkE1oCnGRRLK-63" style="edgeStyle=orthogonalEdgeStyle;rounded=0;orthogonalLoop=1;jettySize=auto;html=1;entryX=1;entryY=0.5;entryDx=0;entryDy=0;curved=1;" edge="1" parent="OcddiBXDzXsKh_pcsMyF-2" source="OcddiBXDzXsKh_pcsMyF-11" target="SjXzEMnr2e4xn0fKiHMG-6">
          <mxGeometry relative="1" as="geometry" />
        </mxCell>
        <mxCell id="e5JbzyADHkE1oCnGRRLK-75" value="Include" style="edgeLabel;html=1;align=center;verticalAlign=middle;resizable=0;points=[];" vertex="1" connectable="0" parent="e5JbzyADHkE1oCnGRRLK-63">
          <mxGeometry x="0.2681" y="9" relative="1" as="geometry">
            <mxPoint as="offset" />
          </mxGeometry>
        </mxCell>
        <mxCell id="e5JbzyADHkE1oCnGRRLK-64" style="edgeStyle=orthogonalEdgeStyle;rounded=0;orthogonalLoop=1;jettySize=auto;html=1;entryX=1;entryY=0.5;entryDx=0;entryDy=0;curved=1;" edge="1" parent="OcddiBXDzXsKh_pcsMyF-2" source="OcddiBXDzXsKh_pcsMyF-11" target="rnh66QLUN7wKCmd3ZSBl-1">
          <mxGeometry relative="1" as="geometry" />
        </mxCell>
        <mxCell id="e5JbzyADHkE1oCnGRRLK-74" value="Include" style="edgeLabel;html=1;align=center;verticalAlign=middle;resizable=0;points=[];" vertex="1" connectable="0" parent="e5JbzyADHkE1oCnGRRLK-64">
          <mxGeometry x="0.098" y="1" relative="1" as="geometry">
            <mxPoint as="offset" />
          </mxGeometry>
        </mxCell>
        <mxCell id="e5JbzyADHkE1oCnGRRLK-65" style="edgeStyle=orthogonalEdgeStyle;rounded=0;orthogonalLoop=1;jettySize=auto;html=1;entryX=1;entryY=0.5;entryDx=0;entryDy=0;curved=1;" edge="1" parent="OcddiBXDzXsKh_pcsMyF-2" source="OcddiBXDzXsKh_pcsMyF-11" target="SjXzEMnr2e4xn0fKiHMG-1">
          <mxGeometry relative="1" as="geometry" />
        </mxCell>
        <mxCell id="e5JbzyADHkE1oCnGRRLK-66" style="edgeStyle=orthogonalEdgeStyle;rounded=0;orthogonalLoop=1;jettySize=auto;html=1;entryX=1;entryY=0.5;entryDx=0;entryDy=0;curved=1;" edge="1" parent="OcddiBXDzXsKh_pcsMyF-2" source="OcddiBXDzXsKh_pcsMyF-11" target="SjXzEMnr2e4xn0fKiHMG-5">
          <mxGeometry relative="1" as="geometry">
            <Array as="points">
              <mxPoint x="1030" y="405" />
              <mxPoint x="1030" y="175" />
            </Array>
          </mxGeometry>
        </mxCell>
        <mxCell id="e5JbzyADHkE1oCnGRRLK-76" value="Include" style="edgeLabel;html=1;align=center;verticalAlign=middle;resizable=0;points=[];" vertex="1" connectable="0" parent="e5JbzyADHkE1oCnGRRLK-66">
          <mxGeometry x="0.4989" y="22" relative="1" as="geometry">
            <mxPoint as="offset" />
          </mxGeometry>
        </mxCell>
        <mxCell id="e5JbzyADHkE1oCnGRRLK-67" style="edgeStyle=orthogonalEdgeStyle;rounded=0;orthogonalLoop=1;jettySize=auto;html=1;entryX=1;entryY=0.5;entryDx=0;entryDy=0;curved=1;" edge="1" parent="OcddiBXDzXsKh_pcsMyF-2" source="OcddiBXDzXsKh_pcsMyF-11" target="SjXzEMnr2e4xn0fKiHMG-4">
          <mxGeometry relative="1" as="geometry" />
        </mxCell>
        <mxCell id="e5JbzyADHkE1oCnGRRLK-73" value="Include" style="edgeLabel;html=1;align=center;verticalAlign=middle;resizable=0;points=[];" vertex="1" connectable="0" parent="e5JbzyADHkE1oCnGRRLK-67">
          <mxGeometry x="0.3752" y="-19" relative="1" as="geometry">
            <mxPoint as="offset" />
          </mxGeometry>
        </mxCell>
        <mxCell id="e5JbzyADHkE1oCnGRRLK-68" style="edgeStyle=orthogonalEdgeStyle;rounded=0;orthogonalLoop=1;jettySize=auto;html=1;entryX=1;entryY=0.5;entryDx=0;entryDy=0;curved=1;" edge="1" parent="OcddiBXDzXsKh_pcsMyF-2" source="OcddiBXDzXsKh_pcsMyF-11" target="SjXzEMnr2e4xn0fKiHMG-7">
          <mxGeometry relative="1" as="geometry">
            <Array as="points">
              <mxPoint x="740" y="405" />
              <mxPoint x="740" y="495" />
            </Array>
          </mxGeometry>
        </mxCell>
        <mxCell id="e5JbzyADHkE1oCnGRRLK-72" value="Include" style="edgeLabel;html=1;align=center;verticalAlign=middle;resizable=0;points=[];" vertex="1" connectable="0" parent="e5JbzyADHkE1oCnGRRLK-68">
          <mxGeometry x="0.6577" y="4" relative="1" as="geometry">
            <mxPoint as="offset" />
          </mxGeometry>
        </mxCell>
        <mxCell id="e5JbzyADHkE1oCnGRRLK-69" style="edgeStyle=orthogonalEdgeStyle;rounded=0;orthogonalLoop=1;jettySize=auto;html=1;entryX=0.5;entryY=1;entryDx=0;entryDy=0;curved=1;" edge="1" parent="OcddiBXDzXsKh_pcsMyF-2" source="OcddiBXDzXsKh_pcsMyF-11" target="SjXzEMnr2e4xn0fKiHMG-1">
          <mxGeometry relative="1" as="geometry" />
        </mxCell>
        <mxCell id="e5JbzyADHkE1oCnGRRLK-77" value="Include" style="edgeLabel;html=1;align=center;verticalAlign=middle;resizable=0;points=[];" vertex="1" connectable="0" parent="e5JbzyADHkE1oCnGRRLK-69">
          <mxGeometry x="0.7397" y="-18" relative="1" as="geometry">
            <mxPoint y="1" as="offset" />
          </mxGeometry>
        </mxCell>
        <mxCell id="e5JbzyADHkE1oCnGRRLK-70" style="edgeStyle=orthogonalEdgeStyle;rounded=0;orthogonalLoop=1;jettySize=auto;html=1;entryX=0.5;entryY=1;entryDx=0;entryDy=0;curved=1;" edge="1" parent="OcddiBXDzXsKh_pcsMyF-2" source="OcddiBXDzXsKh_pcsMyF-11" target="rnh66QLUN7wKCmd3ZSBl-2">
          <mxGeometry relative="1" as="geometry" />
        </mxCell>
        <mxCell id="e5JbzyADHkE1oCnGRRLK-78" value="Include" style="edgeLabel;html=1;align=center;verticalAlign=middle;resizable=0;points=[];" vertex="1" connectable="0" parent="e5JbzyADHkE1oCnGRRLK-70">
          <mxGeometry x="0.5507" y="-9" relative="1" as="geometry">
            <mxPoint x="1" as="offset" />
          </mxGeometry>
        </mxCell>
        <mxCell id="e5JbzyADHkE1oCnGRRLK-71" style="edgeStyle=orthogonalEdgeStyle;rounded=0;orthogonalLoop=1;jettySize=auto;html=1;entryX=0.5;entryY=1;entryDx=0;entryDy=0;curved=1;" edge="1" parent="OcddiBXDzXsKh_pcsMyF-2" source="OcddiBXDzXsKh_pcsMyF-11" target="SjXzEMnr2e4xn0fKiHMG-2">
          <mxGeometry relative="1" as="geometry">
            <Array as="points">
              <mxPoint x="750" y="405" />
              <mxPoint x="750" y="460" />
              <mxPoint x="390" y="460" />
            </Array>
          </mxGeometry>
        </mxCell>
        <mxCell id="e5JbzyADHkE1oCnGRRLK-79" value="Imclude" style="edgeLabel;html=1;align=center;verticalAlign=middle;resizable=0;points=[];" vertex="1" connectable="0" parent="e5JbzyADHkE1oCnGRRLK-71">
          <mxGeometry x="0.7373" y="-5" relative="1" as="geometry">
            <mxPoint as="offset" />
          </mxGeometry>
        </mxCell>
        <mxCell id="OcddiBXDzXsKh_pcsMyF-11" value="01 Iniciar sesion&amp;nbsp;" style="ellipse;whiteSpace=wrap;html=1;spacing=2;" parent="OcddiBXDzXsKh_pcsMyF-2" vertex="1">
          <mxGeometry x="1110" y="370" width="140" height="70" as="geometry" />
        </mxCell>
        <mxCell id="e5JbzyADHkE1oCnGRRLK-40" style="edgeStyle=orthogonalEdgeStyle;rounded=0;orthogonalLoop=1;jettySize=auto;html=1;entryX=0;entryY=0.5;entryDx=0;entryDy=0;curved=1;spacing=2;" edge="1" parent="OcddiBXDzXsKh_pcsMyF-2" source="rnh66QLUN7wKCmd3ZSBl-2" target="SjXzEMnr2e4xn0fKiHMG-1">
          <mxGeometry relative="1" as="geometry" />
        </mxCell>
        <mxCell id="e5JbzyADHkE1oCnGRRLK-53" value="Include" style="edgeLabel;html=1;align=center;verticalAlign=middle;resizable=0;points=[];spacing=2;" vertex="1" connectable="0" parent="e5JbzyADHkE1oCnGRRLK-40">
          <mxGeometry x="-0.054" y="2" relative="1" as="geometry">
            <mxPoint as="offset" />
          </mxGeometry>
        </mxCell>
        <mxCell id="rnh66QLUN7wKCmd3ZSBl-2" value="03 Gestionar Categorias" style="ellipse;whiteSpace=wrap;html=1;spacing=2;" parent="OcddiBXDzXsKh_pcsMyF-2" vertex="1">
          <mxGeometry x="567" y="300" width="140" height="70" as="geometry" />
        </mxCell>
        <mxCell id="rnh66QLUN7wKCmd3ZSBl-1" value="02 Gestionar Usuarios" style="ellipse;whiteSpace=wrap;html=1;spacing=2;" parent="OcddiBXDzXsKh_pcsMyF-2" vertex="1">
          <mxGeometry x="860" y="770" width="140" height="70" as="geometry" />
        </mxCell>
        <mxCell id="SjXzEMnr2e4xn0fKiHMG-1" value="03 Gestionar Subcategorias" style="ellipse;whiteSpace=wrap;html=1;spacing=2;" parent="OcddiBXDzXsKh_pcsMyF-2" vertex="1">
          <mxGeometry x="810" y="250" width="140" height="70" as="geometry" />
        </mxCell>
        <mxCell id="e5JbzyADHkE1oCnGRRLK-39" style="edgeStyle=orthogonalEdgeStyle;rounded=0;orthogonalLoop=1;jettySize=auto;html=1;entryX=0;entryY=0.5;entryDx=0;entryDy=0;curved=1;spacing=2;" edge="1" parent="OcddiBXDzXsKh_pcsMyF-2" source="SjXzEMnr2e4xn0fKiHMG-2" target="rnh66QLUN7wKCmd3ZSBl-2">
          <mxGeometry relative="1" as="geometry">
            <Array as="points">
              <mxPoint x="540" y="405" />
              <mxPoint x="540" y="335" />
            </Array>
          </mxGeometry>
        </mxCell>
        <mxCell id="e5JbzyADHkE1oCnGRRLK-51" value="Include" style="edgeLabel;html=1;align=center;verticalAlign=middle;resizable=0;points=[];spacing=2;" vertex="1" connectable="0" parent="e5JbzyADHkE1oCnGRRLK-39">
          <mxGeometry x="0.3357" y="2" relative="1" as="geometry">
            <mxPoint as="offset" />
          </mxGeometry>
        </mxCell>
        <mxCell id="e5JbzyADHkE1oCnGRRLK-41" style="edgeStyle=orthogonalEdgeStyle;rounded=0;orthogonalLoop=1;jettySize=auto;html=1;entryX=0;entryY=0.5;entryDx=0;entryDy=0;curved=1;spacing=2;" edge="1" parent="OcddiBXDzXsKh_pcsMyF-2" source="SjXzEMnr2e4xn0fKiHMG-2" target="SjXzEMnr2e4xn0fKiHMG-5">
          <mxGeometry relative="1" as="geometry">
            <Array as="points">
              <mxPoint x="510" y="405" />
              <mxPoint x="510" y="175" />
            </Array>
          </mxGeometry>
        </mxCell>
        <mxCell id="e5JbzyADHkE1oCnGRRLK-47" value="Extend" style="edgeLabel;html=1;align=center;verticalAlign=middle;resizable=0;points=[];spacing=2;" vertex="1" connectable="0" parent="e5JbzyADHkE1oCnGRRLK-41">
          <mxGeometry x="-0.0959" y="-9" relative="1" as="geometry">
            <mxPoint as="offset" />
          </mxGeometry>
        </mxCell>
        <mxCell id="SjXzEMnr2e4xn0fKiHMG-2" value="03 Gestionar Producto" style="ellipse;whiteSpace=wrap;html=1;spacing=2;" parent="OcddiBXDzXsKh_pcsMyF-2" vertex="1">
          <mxGeometry x="320" y="370" width="140" height="70" as="geometry" />
        </mxCell>
        <mxCell id="e5JbzyADHkE1oCnGRRLK-42" style="edgeStyle=orthogonalEdgeStyle;rounded=0;orthogonalLoop=1;jettySize=auto;html=1;entryX=0;entryY=0.5;entryDx=0;entryDy=0;curved=1;spacing=2;" edge="1" parent="OcddiBXDzXsKh_pcsMyF-2" source="SjXzEMnr2e4xn0fKiHMG-3" target="SjXzEMnr2e4xn0fKiHMG-4">
          <mxGeometry relative="1" as="geometry">
            <Array as="points">
              <mxPoint x="780" y="715" />
              <mxPoint x="780" y="575" />
            </Array>
          </mxGeometry>
        </mxCell>
        <mxCell id="e5JbzyADHkE1oCnGRRLK-44" value="Extend" style="edgeLabel;html=1;align=center;verticalAlign=middle;resizable=0;points=[];spacing=2;" vertex="1" connectable="0" parent="e5JbzyADHkE1oCnGRRLK-42">
          <mxGeometry x="-0.0654" y="17" relative="1" as="geometry">
            <mxPoint as="offset" />
          </mxGeometry>
        </mxCell>
        <mxCell id="SjXzEMnr2e4xn0fKiHMG-3" value="03 Gestionar Reportes" style="ellipse;whiteSpace=wrap;html=1;spacing=2;" parent="OcddiBXDzXsKh_pcsMyF-2" vertex="1">
          <mxGeometry x="530" y="680" width="140" height="70" as="geometry" />
        </mxCell>
        <mxCell id="SjXzEMnr2e4xn0fKiHMG-4" value="03 Gestionar Alertas" style="ellipse;whiteSpace=wrap;html=1;spacing=2;" parent="OcddiBXDzXsKh_pcsMyF-2" vertex="1">
          <mxGeometry x="810" y="540" width="140" height="70" as="geometry" />
        </mxCell>
        <mxCell id="e5JbzyADHkE1oCnGRRLK-38" style="edgeStyle=orthogonalEdgeStyle;rounded=0;orthogonalLoop=1;jettySize=auto;html=1;entryX=0;entryY=0.5;entryDx=0;entryDy=0;curved=1;spacing=2;" edge="1" parent="OcddiBXDzXsKh_pcsMyF-2" source="SjXzEMnr2e4xn0fKiHMG-7" target="SjXzEMnr2e4xn0fKiHMG-2">
          <mxGeometry relative="1" as="geometry" />
        </mxCell>
        <mxCell id="e5JbzyADHkE1oCnGRRLK-48" value="Include" style="edgeLabel;html=1;align=center;verticalAlign=middle;resizable=0;points=[];spacing=2;" vertex="1" connectable="0" parent="e5JbzyADHkE1oCnGRRLK-38">
          <mxGeometry x="-0.008" relative="1" as="geometry">
            <mxPoint as="offset" />
          </mxGeometry>
        </mxCell>
        <mxCell id="SjXzEMnr2e4xn0fKiHMG-7" value="03 Gestionar Rutas de Distribucion" style="ellipse;whiteSpace=wrap;html=1;" parent="OcddiBXDzXsKh_pcsMyF-2" vertex="1">
          <mxGeometry x="20" y="460" width="140" height="70" as="geometry" />
        </mxCell>
        <mxCell id="SjXzEMnr2e4xn0fKiHMG-6" value="03 Gestionar Proovedores" style="ellipse;whiteSpace=wrap;html=1;spacing=2;" parent="OcddiBXDzXsKh_pcsMyF-2" vertex="1">
          <mxGeometry x="840" y="30" width="140" height="70" as="geometry" />
        </mxCell>
        <mxCell id="SjXzEMnr2e4xn0fKiHMG-5" value="03 Gestionar Mantenimientos" style="ellipse;whiteSpace=wrap;html=1;spacing=2;" parent="OcddiBXDzXsKh_pcsMyF-2" vertex="1">
          <mxGeometry x="700" y="140" width="140" height="70" as="geometry" />
        </mxCell>
        <mxCell id="e5JbzyADHkE1oCnGRRLK-80" style="edgeStyle=orthogonalEdgeStyle;rounded=0;orthogonalLoop=1;jettySize=auto;html=1;entryX=0.5;entryY=1;entryDx=0;entryDy=0;curved=1;" edge="1" parent="1" source="e5JbzyADHkE1oCnGRRLK-56" target="OcddiBXDzXsKh_pcsMyF-11">
          <mxGeometry relative="1" as="geometry" />
        </mxCell>
        <mxCell id="e5JbzyADHkE1oCnGRRLK-56" value="Auxiliar" style="shape=umlActor;verticalLabelPosition=bottom;verticalAlign=top;html=1;outlineConnect=0;" vertex="1" parent="1">
          <mxGeometry x="1130" y="990" width="30" height="60" as="geometry" />
        </mxCell>
        <mxCell id="e5JbzyADHkE1oCnGRRLK-82" style="edgeStyle=orthogonalEdgeStyle;rounded=0;orthogonalLoop=1;jettySize=auto;html=1;curved=1;" edge="1" parent="1" source="e5JbzyADHkE1oCnGRRLK-57">
          <mxGeometry relative="1" as="geometry">
            <mxPoint x="920" y="420" as="targetPoint" />
          </mxGeometry>
        </mxCell>
        <mxCell id="e5JbzyADHkE1oCnGRRLK-62" style="edgeStyle=orthogonalEdgeStyle;rounded=0;orthogonalLoop=1;jettySize=auto;html=1;exitX=0.5;exitY=0.5;exitDx=0;exitDy=0;exitPerimeter=0;entryX=0.5;entryY=0;entryDx=0;entryDy=0;curved=1;" edge="1" parent="1" source="e5JbzyADHkE1oCnGRRLK-58" target="OcddiBXDzXsKh_pcsMyF-11">
          <mxGeometry relative="1" as="geometry" />
        </mxCell>
        <mxCell id="e5JbzyADHkE1oCnGRRLK-58" value="Supervisor" style="shape=umlActor;verticalLabelPosition=bottom;verticalAlign=top;html=1;outlineConnect=0;" vertex="1" parent="1">
          <mxGeometry x="1120" y="-80" width="30" height="60" as="geometry" />
        </mxCell>
        <mxCell id="e5JbzyADHkE1oCnGRRLK-81" style="edgeStyle=orthogonalEdgeStyle;rounded=0;orthogonalLoop=1;jettySize=auto;html=1;curved=1;" edge="1" parent="1" source="e5JbzyADHkE1oCnGRRLK-59" target="OcddiBXDzXsKh_pcsMyF-11">
          <mxGeometry relative="1" as="geometry" />
        </mxCell>
        <mxCell id="e5JbzyADHkE1oCnGRRLK-59" value="Tecnico" style="shape=umlActor;verticalLabelPosition=bottom;verticalAlign=top;html=1;outlineConnect=0;" vertex="1" parent="1">
          <mxGeometry x="660" y="990" width="30" height="60" as="geometry" />
        </mxCell>
        <mxCell id="e5JbzyADHkE1oCnGRRLK-57" value="Administrador" style="shape=umlActor;verticalLabelPosition=bottom;verticalAlign=top;html=1;outlineConnect=0;" vertex="1" parent="1">
          <mxGeometry x="700" y="-80" width="30" height="60" as="geometry" />
        </mxCell>
      </root>
    </mxGraphModel>
  </diagram>
</mxfile>
